<svg xmlns="http://www.w3.org/2000/svg" xmlns:xlink="http://www.w3.org/1999/xlink" viewBox="0 0 1301.38 768"><defs><style>.cls-1,.cls-5,.cls-6{fill:none;}.cls-2{fill:#fff;}.cls-3{fill-opacity:0;}.cls-4{clip-path:url(#clip-path);}.cls-5,.cls-6{stroke:#eee;}.cls-6{stroke-linecap:square;}.cls-15,.cls-25,.cls-28,.cls-29,.cls-7,.cls-8{isolation:isolate;}.cls-15,.cls-8{font-size:12.97px;}.cls-25,.cls-8{fill:#aaa;}.cls-15,.cls-34,.cls-8{font-family:GillSans, Gill Sans;}.cls-9{letter-spacing:-0.02em;}.cls-10{letter-spacing:-0.01em;}.cls-11{letter-spacing:0em;}.cls-12{letter-spacing:-0.01em;}.cls-13{letter-spacing:0em;}.cls-14{letter-spacing:-0.02em;}.cls-15{fill:#545454;}.cls-16{letter-spacing:-0.02em;}.cls-17{letter-spacing:-0.02em;}.cls-18{letter-spacing:-0.12em;}.cls-19{letter-spacing:-0.1em;}.cls-20{letter-spacing:0.02em;}.cls-21{letter-spacing:-0.02em;}.cls-22{letter-spacing:-0.02em;}.cls-23{letter-spacing:0em;}.cls-24{letter-spacing:-0.04em;}.cls-25{font-size:12.97px;font-family:ArialMT, Arial;}.cls-26{clip-path:url(#clip-path-2);}.cls-27{fill:#eee;}.cls-28{fill:#edb8f2;}.cls-28,.cls-29{opacity:0.9;}.cls-29{fill:#e888f2;}.cls-30{font-size:18.03px;font-family:GillSans-SemiBold, Gill Sans;}.cls-31{font-weight:700;}.cls-32{letter-spacing:-0.02em;}.cls-33{letter-spacing:-0.06em;}.cls-35{letter-spacing:-0.01em;}.cls-36{letter-spacing:-0.01em;}</style><clipPath id="clip-path" transform="translate(-32.31 0)"><rect class="cls-1" x="186.74" y="107.21" width="1014.25" height="544.36"/></clipPath><clipPath id="clip-path-2" transform="translate(-32.31 0)"><rect class="cls-1" x="148.81" y="90.48" width="1061.96" height="655.32"/></clipPath></defs><title>graph2</title><g id="Capa_2" data-name="Capa 2"><rect class="cls-2" width="1301.38" height="768"/></g><g id="Capa_1" data-name="Capa 1"><rect class="cls-1" x="155.45" y="108.24" width="1012.19" height="542.3"/><rect class="cls-3" x="155.45" y="108.24" width="1012.19" height="542.3"/><g class="cls-4"><line class="cls-5" x1="155.45" y1="650.53" x2="1167.65" y2="650.53"/><line class="cls-5" x1="155.45" y1="590.28" x2="1167.65" y2="590.28"/><line class="cls-5" x1="155.45" y1="530.02" x2="1167.65" y2="530.02"/><line class="cls-5" x1="155.45" y1="469.77" x2="1167.65" y2="469.77"/><line class="cls-5" x1="155.45" y1="409.51" x2="1167.65" y2="409.51"/><line class="cls-5" x1="155.45" y1="349.26" x2="1167.65" y2="349.26"/><line class="cls-5" x1="155.45" y1="289" x2="1167.65" y2="289"/><line class="cls-5" x1="155.45" y1="228.75" x2="1167.65" y2="228.75"/><line class="cls-5" x1="155.45" y1="168.49" x2="1167.65" y2="168.49"/><line class="cls-5" x1="155.45" y1="108.24" x2="1167.65" y2="108.24"/></g><line class="cls-6" x1="155.45" y1="650.53" x2="1167.65" y2="650.53"/><g class="cls-7"><text class="cls-8" transform="translate(140.07 700.88) rotate(-45)">Vitacura</text></g><line class="cls-5" x1="167.5" y1="650.53" x2="167.5" y2="657.74"/><g class="cls-7"><text class="cls-8" transform="translate(148.7 716.35) rotate(-45)">Las Condes</text></g><line class="cls-5" x1="191.6" y1="650.53" x2="191.6" y2="657.74"/><g class="cls-7"><text class="cls-8" transform="translate(185.04 704.12) rotate(-45)">La Reina</text></g><line class="cls-5" x1="215.7" y1="650.53" x2="215.7" y2="657.74"/><g class="cls-7"><text class="cls-8" transform="translate(188.74 724.52) rotate(-45)">Lo Barnechea</text></g><line class="cls-5" x1="239.8" y1="650.53" x2="239.8" y2="657.74"/><g class="cls-7"><text class="cls-8" transform="translate(222.03 715.33) rotate(-45)">P<tspan class="cls-9" x="6.61" y="0">r</tspan><tspan class="cls-10" x="11.43" y="0">o</tspan><tspan class="cls-11" x="18.46" y="0">videncia</tspan></text></g><line class="cls-5" x1="263.9" y1="650.53" x2="263.9" y2="657.74"/><g class="cls-7"><text class="cls-8" transform="translate(267.02 694.43) rotate(-45)">Ñuñoa</text></g><line class="cls-5" x1="288" y1="650.53" x2="288" y2="657.74"/><g class="cls-7"><text class="cls-8" transform="translate(293.69 691.87) rotate(-45)">Macul</text></g><line class="cls-5" x1="312.1" y1="650.53" x2="312.1" y2="657.74"/><g class="cls-7"><text class="cls-8" transform="translate(306.04 703.61) rotate(-45)">Santia<tspan class="cls-12" x="30.66" y="0">g</tspan><tspan class="cls-13" x="36.07" y="0">o</tspan></text></g><line class="cls-5" x1="336.2" y1="650.53" x2="336.2" y2="657.74"/><g class="cls-7"><text class="cls-8" transform="translate(320.46 713.29) rotate(-45)">San Miguel</text></g><line class="cls-5" x1="360.3" y1="650.53" x2="360.3" y2="657.74"/><g class="cls-7"><text class="cls-8" transform="translate(349.66 708.19) rotate(-45)">La Florida</text></g><line class="cls-5" x1="384.4" y1="650.53" x2="384.4" y2="657.74"/><g class="cls-7"><text class="cls-8" transform="translate(389.57 692.38) rotate(-45)">Maipú</text></g><line class="cls-5" x1="408.5" y1="650.53" x2="408.5" y2="657.74"/><g class="cls-7"><text class="cls-8" transform="translate(402.46 703.59) rotate(-45)">Quilicura</text></g><line class="cls-5" x1="432.6" y1="650.53" x2="432.6" y2="657.74"/><g class="cls-7"><text class="cls-8" transform="translate(412.78 717.37) rotate(-45)">Huechuraba</text></g><line class="cls-5" x1="456.7" y1="650.53" x2="456.7" y2="657.74"/><g class="cls-7"><text class="cls-8" transform="translate(452.69 701.56) rotate(-45)"><tspan class="cls-14">P</tspan><tspan x="6.29" y="0">eñaflor</tspan></text></g><line class="cls-5" x1="480.8" y1="650.53" x2="480.8" y2="657.74"/><g class="cls-7"><text class="cls-8" transform="translate(470.15 708.2) rotate(-45)"><tspan class="cls-14">P</tspan><tspan x="6.29" y="0">eñalolén</tspan></text></g><line class="cls-5" x1="504.9" y1="650.53" x2="504.9" y2="657.74"/><g class="cls-7"><text class="cls-8" transform="translate(509.05 693.4) rotate(-45)">Colina</text></g><line class="cls-5" x1="529" y1="650.53" x2="529" y2="657.74"/><g class="cls-7"><text class="cls-15" transform="translate(518.87 707.68) rotate(-45)">La Granja</text></g><line class="cls-5" x1="553.1" y1="650.53" x2="553.1" y2="657.74"/><g class="cls-7"><text class="cls-8" transform="translate(531.74 718.91) rotate(-45)">San <tspan class="cls-16" x="21.57" y="0">J</tspan><tspan x="24.55" y="0">oaquín</tspan></text></g><line class="cls-5" x1="577.2" y1="650.53" x2="577.2" y2="657.74"/><g class="cls-7"><text class="cls-8" transform="translate(560.44 714.31) rotate(-45)">La Cisterna</text></g><line class="cls-5" x1="601.3" y1="650.53" x2="601.3" y2="657.74"/><g class="cls-7"><text class="cls-8" transform="translate(595.25 703.6) rotate(-45)">Recoleta</text></g><line class="cls-5" x1="625.4" y1="650.53" x2="625.4" y2="657.74"/><g class="cls-7"><text class="cls-8" transform="translate(627.51 695.45) rotate(-45)">Lampa</text></g><line class="cls-5" x1="649.5" y1="650.53" x2="649.5" y2="657.74"/><g class="cls-7"><text class="cls-8" transform="translate(640.89 706.16) rotate(-45)">Pudahuel</text></g><line class="cls-5" x1="673.6" y1="650.53" x2="673.6" y2="657.74"/><g class="cls-7"><text class="cls-8" transform="translate(647.15 724) rotate(-45)">San Berna<tspan class="cls-17" x="52.25" y="0">r</tspan><tspan x="57.19" y="0">do</tspan></text></g><line class="cls-5" x1="697.7" y1="650.53" x2="697.7" y2="657.74"/><g class="cls-7"><text class="cls-8" transform="translate(688.07 707.18) rotate(-45)"><tspan class="cls-18">T</tspan><tspan x="6.21" y="0">alagante</tspan></text></g><line class="cls-5" x1="721.8" y1="650.53" x2="721.8" y2="657.74"/><g class="cls-7"><text class="cls-8" transform="translate(684.65 734.7) rotate(-45)">Estación Central</text></g><line class="cls-5" x1="745.9" y1="650.53" x2="745.9" y2="657.74"/><g class="cls-7"><text class="cls-8" transform="translate(715.86 727.59) rotate(-45)">Independencia</text></g><line class="cls-5" x1="770" y1="650.53" x2="770" y2="657.74"/><g class="cls-7"><text class="cls-8" transform="translate(753.23 714.32) rotate(-45)">Puente<tspan class="cls-19" x="36.33" y="0"> </tspan><tspan x="38.64" y="0">Alto</tspan></text></g><line class="cls-5" x1="794.1" y1="650.53" x2="794.1" y2="657.74"/><g class="cls-7"><text class="cls-8" transform="translate(782.43 709.21) rotate(-45)">El Bosque</text></g><line class="cls-5" x1="818.2" y1="650.53" x2="818.2" y2="657.74"/><g class="cls-7"><text class="cls-8" transform="translate(788.69 727.06) rotate(-45)">Pad<tspan class="cls-16" x="18.76" y="0">r</tspan><tspan x="23.64" y="0">e Hu</tspan><tspan class="cls-20" x="49.4" y="0">r</tspan><tspan x="54.8" y="0">tado</tspan></text></g><line class="cls-5" x1="842.3" y1="650.53" x2="842.3" y2="657.74"/><g class="cls-7"><text class="cls-8" transform="translate(838.81 701.03) rotate(-45)">Ce<tspan class="cls-12" x="15.4" y="0">r</tspan><tspan x="20.41" y="0">rillos</tspan></text></g><line class="cls-5" x1="866.4" y1="650.53" x2="866.4" y2="657.74"/><g class="cls-7"><text class="cls-8" transform="translate(812.93 751.02) rotate(-45)"><tspan class="cls-21">P</tspan><tspan x="6.29" y="0">ed</tspan><tspan class="cls-21" x="19.12" y="0">r</tspan><tspan x="23.93" y="0">o</tspan><tspan class="cls-19" x="31.09" y="0"> </tspan><tspan x="33.39" y="0">Agui</tspan><tspan class="cls-12" x="56.91" y="0">r</tspan><tspan class="cls-16" x="61.92" y="0">r</tspan><tspan x="66.8" y="0">e Ce</tspan><tspan class="cls-17" x="92.02" y="0">r</tspan><tspan x="96.96" y="0">da</tspan></text></g><line class="cls-5" x1="890.5" y1="650.53" x2="890.5" y2="657.74"/><g class="cls-7"><text class="cls-8" transform="translate(887.51 700.53) rotate(-45)">Melipilla</text></g><line class="cls-5" x1="914.6" y1="650.53" x2="914.6" y2="657.74"/><g class="cls-7"><text class="cls-8" transform="translate(921.29 690.86) rotate(-45)">Paine</text></g><line class="cls-5" x1="938.7" y1="650.53" x2="938.7" y2="657.74"/><g class="cls-7"><text class="cls-8" transform="translate(931.62 704.63) rotate(-45)">Lo Prado</text></g><line class="cls-5" x1="962.8" y1="650.53" x2="962.8" y2="657.74"/><g class="cls-7"><text class="cls-8" transform="translate(966.43 693.91) rotate(-45)">Renca</text></g><line class="cls-5" x1="986.9" y1="650.53" x2="986.9" y2="657.74"/><g class="cls-7"><text class="cls-8" transform="translate(980.85 703.6) rotate(-45)">Conchalí</text></g><line class="cls-5" x1="1011" y1="650.53" x2="1011" y2="657.74"/><g class="cls-7"><text class="cls-8" transform="translate(1022.79 685.76) rotate(-45)">Buin</text></g><line class="cls-5" x1="1035.1" y1="650.53" x2="1035.1" y2="657.74"/><text class="cls-15" transform="translate(1006.11 726.53) rotate(-45)">Quinta Normal</text><line class="cls-5" x1="1059.2" y1="650.53" x2="1059.2" y2="657.74"/><g class="cls-7"><text class="cls-8" transform="translate(1040.41 716.34) rotate(-45)">Ce<tspan class="cls-12" x="15.4" y="0">r</tspan><tspan class="cls-22" x="20.41" y="0">r</tspan><tspan class="cls-23" x="25.22" y="0">o N</tspan><tspan class="cls-24" x="46.11" y="0">a</tspan><tspan x="51.19" y="0">via</tspan></text></g><line class="cls-5" x1="1083.3" y1="650.53" x2="1083.3" y2="657.74"/><g class="cls-7"><text class="cls-8" transform="translate(1065.01 715.84) rotate(-45)">San Ramón</text></g><line class="cls-5" x1="1107.4" y1="650.53" x2="1107.4" y2="657.74"/><g class="cls-7"><text class="cls-8" transform="translate(1096.75 708.2) rotate(-45)">Lo Espejo</text></g><line class="cls-5" x1="1131.5" y1="650.53" x2="1131.5" y2="657.74"/><g class="cls-7"><text class="cls-8" transform="translate(1117.78 711.26) rotate(-45)">La Pintana</text></g><line class="cls-5" x1="1155.6" y1="650.53" x2="1155.6" y2="657.74"/><line class="cls-6" x1="155.45" y1="108.24" x2="155.45" y2="650.53"/><g class="cls-7"><text class="cls-25" transform="translate(137.43 654.82)">0</text></g><line class="cls-5" x1="155.45" y1="650.53" x2="148.25" y2="650.53"/><g class="cls-7"><text class="cls-25" transform="translate(130.22 112.52)">90</text></g><line class="cls-5" x1="155.45" y1="108.24" x2="148.25" y2="108.24"/><g class="cls-7"><text class="cls-25" transform="translate(130.22 172.77)">80</text></g><line class="cls-5" x1="155.45" y1="168.49" x2="148.25" y2="168.49"/><g class="cls-7"><text class="cls-25" transform="translate(130.22 233.03)">70</text></g><line class="cls-5" x1="155.45" y1="228.75" x2="148.25" y2="228.75"/><g class="cls-7"><text class="cls-25" transform="translate(130.22 293.28)">60</text></g><line class="cls-5" x1="155.45" y1="289" x2="148.25" y2="289"/><g class="cls-7"><text class="cls-25" transform="translate(130.22 353.54)">50</text></g><line class="cls-5" x1="155.45" y1="349.26" x2="148.25" y2="349.26"/><g class="cls-7"><text class="cls-25" transform="translate(130.22 413.79)">40</text></g><line class="cls-5" x1="155.45" y1="409.51" x2="148.25" y2="409.51"/><g class="cls-7"><text class="cls-25" transform="translate(130.22 474.05)">30</text></g><line class="cls-5" x1="155.45" y1="469.77" x2="148.25" y2="469.77"/><g class="cls-7"><text class="cls-25" transform="translate(130.22 534.3)">20</text></g><line class="cls-5" x1="155.45" y1="530.02" x2="148.25" y2="530.02"/><g class="cls-7"><text class="cls-25" transform="translate(130.22 594.56)">10</text></g><line class="cls-5" x1="155.45" y1="590.28" x2="148.25" y2="590.28"/><g class="cls-26"><polygon class="cls-27" points="155.45 101.29 155.45 101.29 155.45 101.29 155.45 101.29"/></g><g id="data-points"><g class="cls-26"><path id="point-0-0" class="cls-28" d="M190.78,255.5h18.07v395H190.78Z" transform="translate(-32.31 0)"/><path id="point-0-1" class="cls-28" d="M214.88,295.27H233V650.53H214.88Z" transform="translate(-32.31 0)"/><path id="point-0-2" class="cls-28" d="M239,211.82h18.07V650.53H239Z" transform="translate(-32.31 0)"/><path id="point-0-3" class="cls-28" d="M263.08,293.64h18.07V650.53H263.08Z" transform="translate(-32.31 0)"/><path id="point-0-4" class="cls-28" d="M287.18,280.08h18.07V650.53H287.18Z" transform="translate(-32.31 0)"/><path id="point-0-5" class="cls-28" d="M311.28,309.55h18.07v341H311.28Z" transform="translate(-32.31 0)"/><path id="point-0-6" class="cls-28" d="M335.38,255.26h18.07V650.53H335.38Z" transform="translate(-32.31 0)"/><path id="point-0-7" class="cls-28" d="M359.48,361.67h18.07V650.53H359.48Z" transform="translate(-32.31 0)"/><path id="point-0-8" class="cls-28" d="M383.58,345.4h18.07V650.53H383.58Z" transform="translate(-32.31 0)"/><path id="point-0-9" class="cls-28" d="M407.68,298.34h18.07V650.53H407.68Z" transform="translate(-32.31 0)"/><path id="point-0-10" class="cls-28" d="M431.78,351.37h18.07V650.53H431.78Z" transform="translate(-32.31 0)"/><path id="point-0-11" class="cls-28" d="M455.88,293H474V650.53H455.88Z" transform="translate(-32.31 0)"/><path id="point-0-12" class="cls-28" d="M480,242.49h18.07v408H480Z" transform="translate(-32.31 0)"/><path id="point-0-13" class="cls-28" d="M504.08,264.24h18.07V650.53H504.08Z" transform="translate(-32.31 0)"/><path id="point-0-14" class="cls-28" d="M528.18,352h18.07v298.5H528.18Z" transform="translate(-32.31 0)"/><path id="point-0-15" class="cls-28" d="M552.28,270.87h18.07V650.53H552.28Z" transform="translate(-32.31 0)"/><path id="point-0-16" class="cls-29" d="M576.38,120.17h18.07V650.53H576.38Z" transform="translate(-32.31 0)"/><path id="point-0-17" class="cls-28" d="M600.48,266h18.07V650.53H600.48Z" transform="translate(-32.31 0)"/><path id="point-0-18" class="cls-28" d="M624.58,386.68h18.07V650.53H624.58Z" transform="translate(-32.31 0)"/><path id="point-0-19" class="cls-28" d="M648.68,311.12h18.07V650.53H648.68Z" transform="translate(-32.31 0)"/><path id="point-0-20" class="cls-28" d="M672.78,288.4h18.07V650.53H672.78Z" transform="translate(-32.31 0)"/><path id="point-0-21" class="cls-28" d="M696.87,302.74H715V650.53H696.87Z" transform="translate(-32.31 0)"/><path id="point-0-22" class="cls-28" d="M721,289.54h18.08v361H721Z" transform="translate(-32.31 0)"/><path id="point-0-23" class="cls-28" d="M745.07,225.19h18.08V650.53H745.07Z" transform="translate(-32.31 0)"/><path id="point-0-24" class="cls-28" d="M769.17,399h18.08V650.53H769.17Z" transform="translate(-32.31 0)"/><path id="point-0-25" class="cls-28" d="M793.27,356.73h18.08v293.8H793.27Z" transform="translate(-32.31 0)"/><path id="point-0-26" class="cls-28" d="M817.37,340.16h18.08V650.53H817.37Z" transform="translate(-32.31 0)"/><path id="point-0-27" class="cls-28" d="M841.47,234.17h18.08V650.53H841.47Z" transform="translate(-32.31 0)"/><path id="point-0-28" class="cls-28" d="M865.57,361.43h18.08v289.1H865.57Z" transform="translate(-32.31 0)"/><path id="point-0-29" class="cls-28" d="M889.67,351.31h18.08V650.53H889.67Z" transform="translate(-32.31 0)"/><path id="point-0-30" class="cls-28" d="M913.77,267.07h18.08V650.53H913.77Z" transform="translate(-32.31 0)"/><path id="point-0-31" class="cls-28" d="M937.87,222.06H956V650.53H937.87Z" transform="translate(-32.31 0)"/><path id="point-0-32" class="cls-28" d="M962,322.93h18.08v327.6H962Z" transform="translate(-32.31 0)"/><path id="point-0-33" class="cls-28" d="M986.07,269.78h18.08V650.53H986.07Z" transform="translate(-32.31 0)"/><path id="point-0-34" class="cls-28" d="M1010.17,259.72h18.08V650.53h-18.08Z" transform="translate(-32.31 0)"/><path id="point-0-35" class="cls-28" d="M1034.27,294.73h18.08v355.8h-18.08Z" transform="translate(-32.31 0)"/><path id="point-0-36" class="cls-28" d="M1058.37,396.08h18.08V650.53h-18.08Z" transform="translate(-32.31 0)"/><path id="point-0-37" class="cls-29" d="M1082.47,431.33h18.08v219.2h-18.08Z" transform="translate(-32.31 0)"/><path id="point-0-38" class="cls-28" d="M1106.57,272.79h18.08V650.53h-18.08Z" transform="translate(-32.31 0)"/><path id="point-0-39" class="cls-28" d="M1130.67,299.43h18.08v351.1h-18.08Z" transform="translate(-32.31 0)"/><path id="point-0-40" class="cls-28" d="M1154.77,286.77h18.08V650.53h-18.08Z" transform="translate(-32.31 0)"/><path id="point-0-41" class="cls-28" d="M1178.87,267.31H1197V650.53h-18.08Z" transform="translate(-32.31 0)"/></g></g><text class="cls-30" transform="translate(130.3 28)"><tspan class="cls-31"><tspan class="cls-32">R</tspan><tspan x="11.25" y="0">esultados ICVU 2019 </tspan><tspan x="0" y="21.63">Dimensión Salud y Medio</tspan><tspan class="cls-33" x="199.66" y="21.63"> </tspan><tspan x="203.58" y="21.63">Ambiente</tspan></tspan><tspan class="cls-34"><tspan x="0" y="43.27">(Co</tspan><tspan class="cls-35" x="28.54" y="43.27">m</tspan><tspan x="42.26" y="43.27">unas de Santia</tspan><tspan class="cls-36" x="145.37" y="43.27">g</tspan><tspan x="152.89" y="43.27">o)</tspan></tspan></text></g></svg>