<svg id="Capa_1" data-name="Capa 1" xmlns="http://www.w3.org/2000/svg" xmlns:xlink="http://www.w3.org/1999/xlink" viewBox="0 0 1301.38 768"><defs><style>.cls-1,.cls-12,.cls-13{fill:none;}.cls-2{fill:#fff;}.cls-3{font-size:18.03px;font-family:GillSans-SemiBold, Gill Sans;}.cls-4{font-weight:700;}.cls-5{letter-spacing:-0.02em;}.cls-6{letter-spacing:-0.11em;}.cls-15,.cls-16,.cls-7{font-family:GillSans, Gill Sans;}.cls-8{letter-spacing:-0.01em;}.cls-9{letter-spacing:-0.01em;}.cls-10{fill-opacity:0;}.cls-11{clip-path:url(#clip-path);}.cls-12,.cls-13{stroke:#eee;}.cls-13{stroke-linecap:square;}.cls-14,.cls-15,.cls-16,.cls-28,.cls-31,.cls-32{isolation:isolate;}.cls-15,.cls-16{font-size:12.97px;}.cls-15,.cls-28{fill:#aaa;}.cls-16{fill:#5e5e5e;}.cls-17{letter-spacing:-0.02em;}.cls-18{letter-spacing:-0.01em;}.cls-19{letter-spacing:-0.02em;}.cls-20{letter-spacing:-0.02em;}.cls-21{letter-spacing:0em;}.cls-22{letter-spacing:-0.02em;}.cls-23{letter-spacing:-0.12em;}.cls-24{letter-spacing:-0.1em;}.cls-25{letter-spacing:0.02em;}.cls-26{letter-spacing:-0.01em;}.cls-27{letter-spacing:-0.04em;}.cls-28{font-size:12.97px;font-family:ArialMT, Arial;}.cls-29{clip-path:url(#clip-path-2);}.cls-30{fill:#eee;}.cls-31{fill:#949fff;}.cls-31,.cls-32{opacity:0.9;}.cls-32{fill:#5c6dff;}</style><clipPath id="clip-path" transform="translate(-32.31 0)"><rect class="cls-1" x="186.48" y="107.27" width="1014.4" height="544.44"/></clipPath><clipPath id="clip-path-2" transform="translate(-32.31 0)"><rect class="cls-1" x="148.55" y="90.53" width="1062.11" height="655.42"/></clipPath></defs><title>graph1</title><rect class="cls-2" width="1301.38" height="768"/><text class="cls-3" transform="translate(130.3 28)"><tspan class="cls-4"><tspan class="cls-5">R</tspan><tspan x="11.25" y="0">esultados ICVU 2019 </tspan><tspan x="0" y="21.63">Dimensión</tspan><tspan class="cls-6" x="84.56" y="21.63"> </tspan><tspan x="87.58" y="21.63">Vivienda y Entorno</tspan></tspan><tspan class="cls-7"><tspan x="0" y="43.27">(Co</tspan><tspan class="cls-8" x="28.54" y="43.27">m</tspan><tspan x="42.26" y="43.27">unas de Santia</tspan><tspan class="cls-9" x="145.37" y="43.27">g</tspan><tspan x="152.89" y="43.27">o)</tspan></tspan></text><rect class="cls-1" x="155.2" y="108.3" width="1012.34" height="542.38"/><rect class="cls-10" x="155.2" y="108.3" width="1012.34" height="542.38"/><g class="cls-11"><line class="cls-12" x1="155.2" y1="650.67" x2="1167.54" y2="650.67"/><line class="cls-12" x1="155.2" y1="590.41" x2="1167.54" y2="590.41"/><line class="cls-12" x1="155.2" y1="530.15" x2="1167.54" y2="530.15"/><line class="cls-12" x1="155.2" y1="469.88" x2="1167.54" y2="469.88"/><line class="cls-12" x1="155.2" y1="409.62" x2="1167.54" y2="409.62"/><line class="cls-12" x1="155.2" y1="349.35" x2="1167.54" y2="349.35"/><line class="cls-12" x1="155.2" y1="289.09" x2="1167.54" y2="289.09"/><line class="cls-12" x1="155.2" y1="228.82" x2="1167.54" y2="228.82"/><line class="cls-12" x1="155.2" y1="168.56" x2="1167.54" y2="168.56"/><line class="cls-12" x1="155.2" y1="108.3" x2="1167.54" y2="108.3"/></g><line class="cls-13" x1="155.2" y1="650.67" x2="1167.54" y2="650.67"/><line class="cls-12" x1="167.25" y1="650.67" x2="167.25" y2="657.88"/><g class="cls-14"><text class="cls-15" transform="translate(139.81 701.03) rotate(-45)">Vitacura</text></g><line class="cls-12" x1="191.35" y1="650.67" x2="191.35" y2="657.88"/><g class="cls-14"><text class="cls-15" transform="translate(148.44 716.5) rotate(-45)">Las Condes</text></g><line class="cls-12" x1="215.46" y1="650.67" x2="215.46" y2="657.88"/><g class="cls-14"><text class="cls-15" transform="translate(184.79 704.26) rotate(-45)">La Reina</text></g><line class="cls-12" x1="239.56" y1="650.67" x2="239.56" y2="657.88"/><g class="cls-14"><text class="cls-16" transform="translate(188.48 724.67) rotate(-45)">Lo Barnechea</text></g><line class="cls-12" x1="263.66" y1="650.67" x2="263.66" y2="657.88"/><g class="cls-14"><text class="cls-15" transform="translate(221.78 715.48) rotate(-45)">P<tspan class="cls-17" x="6.61" y="0">r</tspan><tspan class="cls-18" x="11.43" y="0">o</tspan><tspan x="18.46" y="0">videncia</tspan></text></g><line class="cls-12" x1="287.77" y1="650.67" x2="287.77" y2="657.88"/><g class="cls-14"><text class="cls-15" transform="translate(266.79 694.57) rotate(-45)">Ñuñoa</text></g><line class="cls-12" x1="311.87" y1="650.67" x2="311.87" y2="657.88"/><g class="cls-14"><text class="cls-15" transform="translate(293.45 692.01) rotate(-45)">Macul</text></g><line class="cls-12" x1="335.97" y1="650.67" x2="335.97" y2="657.88"/><g class="cls-14"><text class="cls-15" transform="translate(305.81 703.76) rotate(-45)">Santia<tspan class="cls-18" x="30.67" y="0">g</tspan><tspan x="36.08" y="0">o</tspan></text></g><line class="cls-12" x1="360.08" y1="650.67" x2="360.08" y2="657.88"/><g class="cls-14"><text class="cls-15" transform="translate(320.23 713.44) rotate(-45)">San Miguel</text></g><line class="cls-12" x1="384.18" y1="650.67" x2="384.18" y2="657.88"/><g class="cls-14"><text class="cls-15" transform="translate(349.44 708.34) rotate(-45)">La Florida</text></g><line class="cls-12" x1="408.28" y1="650.67" x2="408.28" y2="657.88"/><g class="cls-14"><text class="cls-15" transform="translate(389.35 692.53) rotate(-45)">Maipú</text></g><line class="cls-12" x1="432.39" y1="650.67" x2="432.39" y2="657.88"/><g class="cls-14"><text class="cls-15" transform="translate(402.24 703.74) rotate(-45)">Quilicura</text></g><line class="cls-12" x1="456.49" y1="650.67" x2="456.49" y2="657.88"/><g class="cls-14"><text class="cls-15" transform="translate(412.56 717.52) rotate(-45)">Huechuraba</text></g><line class="cls-12" x1="480.59" y1="650.67" x2="480.59" y2="657.88"/><g class="cls-14"><text class="cls-15" transform="translate(452.48 701.71) rotate(-45)"><tspan class="cls-19">P</tspan><tspan x="6.29" y="0">eñaflor</tspan></text></g><line class="cls-12" x1="504.7" y1="650.67" x2="504.7" y2="657.88"/><g class="cls-14"><text class="cls-15" transform="translate(469.94 708.35) rotate(-45)"><tspan class="cls-19">P</tspan><tspan x="6.29" y="0">eñalolén</tspan></text></g><line class="cls-12" x1="528.8" y1="650.67" x2="528.8" y2="657.88"/><g class="cls-14"><text class="cls-15" transform="translate(508.85 693.55) rotate(-45)">Colina</text></g><line class="cls-12" x1="552.9" y1="650.67" x2="552.9" y2="657.88"/><g class="cls-14"><text class="cls-15" transform="translate(518.67 707.83) rotate(-45)">La Granja</text></g><line class="cls-12" x1="577.01" y1="650.67" x2="577.01" y2="657.88"/><g class="cls-14"><text class="cls-15" transform="translate(531.54 719.06) rotate(-45)">San <tspan class="cls-20" x="21.57" y="0">J</tspan><tspan class="cls-21" x="24.56" y="0">oaquín</tspan></text></g><line class="cls-12" x1="601.11" y1="650.67" x2="601.11" y2="657.88"/><g class="cls-14"><text class="cls-15" transform="translate(560.25 714.46) rotate(-45)">La Cisterna</text></g><line class="cls-12" x1="625.21" y1="650.67" x2="625.21" y2="657.88"/><g class="cls-14"><text class="cls-15" transform="translate(595.06 703.75) rotate(-45)">Recoleta</text></g><line class="cls-12" x1="649.32" y1="650.67" x2="649.32" y2="657.88"/><g class="cls-14"><text class="cls-15" transform="translate(627.32 695.59) rotate(-45)">Lampa</text></g><line class="cls-12" x1="673.42" y1="650.67" x2="673.42" y2="657.88"/><g class="cls-14"><text class="cls-15" transform="translate(640.7 706.31) rotate(-45)">Pudahuel</text></g><line class="cls-12" x1="697.52" y1="650.67" x2="697.52" y2="657.88"/><g class="cls-14"><text class="cls-15" transform="translate(646.96 724.15) rotate(-45)">San Berna<tspan class="cls-22" x="52.25" y="0">r</tspan><tspan x="57.19" y="0">do</tspan></text></g><line class="cls-12" x1="721.63" y1="650.67" x2="721.63" y2="657.88"/><g class="cls-14"><text class="cls-15" transform="translate(687.89 707.33) rotate(-45)"><tspan class="cls-23">T</tspan><tspan x="6.21" y="0">alagante</tspan></text></g><line class="cls-12" x1="745.73" y1="650.67" x2="745.73" y2="657.88"/><g class="cls-14"><text class="cls-15" transform="translate(684.47 734.85) rotate(-45)">Estación Central</text></g><line class="cls-12" x1="769.83" y1="650.67" x2="769.83" y2="657.88"/><text class="cls-16" transform="translate(715.69 727.74) rotate(-45)">Independencia</text><line class="cls-12" x1="793.94" y1="650.67" x2="793.94" y2="657.88"/><g class="cls-14"><text class="cls-15" transform="translate(753.06 714.47) rotate(-45)">Puente<tspan class="cls-24" x="36.34" y="0"> </tspan><tspan x="38.64" y="0">Alto</tspan></text></g><line class="cls-12" x1="818.04" y1="650.67" x2="818.04" y2="657.88"/><g class="cls-14"><text class="cls-15" transform="translate(782.27 709.36) rotate(-45)">El Bosque</text></g><line class="cls-12" x1="842.14" y1="650.67" x2="842.14" y2="657.88"/><g class="cls-14"><text class="cls-15" transform="translate(788.53 727.21) rotate(-45)">Pad<tspan class="cls-20" x="18.76" y="0">r</tspan><tspan x="23.64" y="0">e Hu</tspan><tspan class="cls-25" x="49.41" y="0">r</tspan><tspan x="54.81" y="0">tado</tspan></text></g><line class="cls-12" x1="866.25" y1="650.67" x2="866.25" y2="657.88"/><g class="cls-14"><text class="cls-15" transform="translate(838.66 701.18) rotate(-45)">Ce<tspan class="cls-26" x="15.4" y="0">r</tspan><tspan x="20.41" y="0">rillos</tspan></text></g><line class="cls-12" x1="890.35" y1="650.67" x2="890.35" y2="657.88"/><g class="cls-14"><text class="cls-15" transform="translate(812.77 751.18) rotate(-45)"><tspan class="cls-19">P</tspan><tspan x="6.29" y="0">ed</tspan><tspan class="cls-19" x="19.12" y="0">r</tspan><tspan x="23.93" y="0">o</tspan><tspan class="cls-24" x="31.09" y="0"> </tspan><tspan x="33.4" y="0">Agui</tspan><tspan class="cls-26" x="56.92" y="0">r</tspan><tspan class="cls-20" x="61.93" y="0">r</tspan><tspan x="66.81" y="0">e Ce</tspan><tspan class="cls-22" x="92.03" y="0">r</tspan><tspan x="96.97" y="0">da</tspan></text></g><line class="cls-12" x1="914.45" y1="650.67" x2="914.45" y2="657.88"/><g class="cls-14"><text class="cls-15" transform="translate(887.37 700.68) rotate(-45)">Melipilla</text></g><line class="cls-12" x1="938.56" y1="650.67" x2="938.56" y2="657.88"/><g class="cls-14"><text class="cls-15" transform="translate(921.15 691) rotate(-45)">Paine</text></g><line class="cls-12" x1="962.66" y1="650.67" x2="962.66" y2="657.88"/><g class="cls-14"><text class="cls-15" transform="translate(931.48 704.77) rotate(-45)">Lo Prado</text></g><line class="cls-12" x1="986.76" y1="650.67" x2="986.76" y2="657.88"/><g class="cls-14"><text class="cls-15" transform="translate(966.3 694.06) rotate(-45)">Renca</text></g><line class="cls-12" x1="1010.87" y1="650.67" x2="1010.87" y2="657.88"/><g class="cls-14"><text class="cls-15" transform="translate(980.71 703.75) rotate(-45)">Conchalí</text></g><line class="cls-12" x1="1034.97" y1="650.67" x2="1034.97" y2="657.88"/><g class="cls-14"><text class="cls-15" transform="translate(1022.66 685.9) rotate(-45)">Buin</text></g><line class="cls-12" x1="1059.07" y1="650.67" x2="1059.07" y2="657.88"/><g class="cls-14"><text class="cls-15" transform="translate(1005.98 726.69) rotate(-45)">Quinta Normal</text></g><line class="cls-12" x1="1083.18" y1="650.67" x2="1083.18" y2="657.88"/><g class="cls-14"><text class="cls-15" transform="translate(1040.29 716.48) rotate(-45)">Ce<tspan class="cls-26" x="15.4" y="0">r</tspan><tspan class="cls-19" x="20.41" y="0">r</tspan><tspan x="25.23" y="0">o N</tspan><tspan class="cls-27" x="46.12" y="0">a</tspan><tspan x="51.2" y="0">via</tspan></text></g><line class="cls-12" x1="1107.28" y1="650.67" x2="1107.28" y2="657.88"/><g class="cls-14"><text class="cls-15" transform="translate(1064.89 715.99) rotate(-45)">San Ramón</text></g><line class="cls-12" x1="1131.38" y1="650.67" x2="1131.38" y2="657.88"/><g class="cls-14"><text class="cls-15" transform="translate(1096.63 708.35) rotate(-45)">Lo Espejo</text></g><line class="cls-12" x1="1155.49" y1="650.67" x2="1155.49" y2="657.88"/><text class="cls-15" transform="translate(1117.67 711.41) rotate(-45)">La Pintana</text><line class="cls-13" x1="155.2" y1="108.3" x2="155.2" y2="650.67"/><line class="cls-12" x1="155.2" y1="650.67" x2="147.99" y2="650.67"/><g class="cls-14"><text class="cls-28" transform="translate(137.17 654.96)">0</text></g><line class="cls-12" x1="155.2" y1="108.3" x2="147.99" y2="108.3"/><g class="cls-14"><text class="cls-28" transform="translate(129.96 112.58)">90</text></g><line class="cls-12" x1="155.2" y1="168.56" x2="147.99" y2="168.56"/><g class="cls-14"><text class="cls-28" transform="translate(129.96 172.84)">80</text></g><line class="cls-12" x1="155.2" y1="228.82" x2="147.99" y2="228.82"/><g class="cls-14"><text class="cls-28" transform="translate(129.96 233.11)">70</text></g><line class="cls-12" x1="155.2" y1="289.09" x2="147.99" y2="289.09"/><g class="cls-14"><text class="cls-28" transform="translate(129.96 293.37)">60</text></g><line class="cls-12" x1="155.2" y1="349.35" x2="147.99" y2="349.35"/><g class="cls-14"><text class="cls-28" transform="translate(129.96 353.63)">50</text></g><line class="cls-12" x1="155.2" y1="409.62" x2="147.99" y2="409.62"/><g class="cls-14"><text class="cls-28" transform="translate(129.96 413.9)">40</text></g><line class="cls-12" x1="155.2" y1="469.88" x2="147.99" y2="469.88"/><g class="cls-14"><text class="cls-28" transform="translate(129.96 474.16)">30</text></g><line class="cls-12" x1="155.2" y1="530.15" x2="147.99" y2="530.15"/><g class="cls-14"><text class="cls-28" transform="translate(129.96 534.43)">20</text></g><line class="cls-12" x1="155.2" y1="590.41" x2="147.99" y2="590.41"/><g class="cls-14"><text class="cls-28" transform="translate(129.96 594.69)">10</text></g><g class="cls-29"><polygon class="cls-30" points="155.2 101.34 155.2 101.34 155.2 101.34 155.2 101.34"/></g><g id="data-points"><g class="cls-29"><path id="point-0-0" class="cls-31" d="M190.52,140.42H208.6V650.67H190.52Z" transform="translate(-32.31 0)"/><path id="point-0-1" class="cls-31" d="M214.63,140.18H232.7V650.67H214.63Z" transform="translate(-32.31 0)"/><path id="point-0-2" class="cls-31" d="M238.73,298.55h18.08V650.67H238.73Z" transform="translate(-32.31 0)"/><path id="point-0-3" class="cls-32" d="M262.83,129.63h18.08v521H262.83Z" transform="translate(-32.31 0)"/><path id="point-0-4" class="cls-31" d="M286.94,228H305V650.67H286.94Z" transform="translate(-32.31 0)"/><path id="point-0-5" class="cls-31" d="M311,279.33h18.08V650.67H311Z" transform="translate(-32.31 0)"/><path id="point-0-6" class="cls-31" d="M335.14,389.61h18.08V650.67H335.14Z" transform="translate(-32.31 0)"/><path id="point-0-7" class="cls-31" d="M359.25,369h18.08V650.67H359.25Z" transform="translate(-32.31 0)"/><path id="point-0-8" class="cls-31" d="M383.35,371.29h18.08V650.67H383.35Z" transform="translate(-32.31 0)"/><path id="point-0-9" class="cls-31" d="M407.45,376.59h18.08V650.67H407.45Z" transform="translate(-32.31 0)"/><path id="point-0-10" class="cls-31" d="M431.56,372.68h18.08v278H431.56Z" transform="translate(-32.31 0)"/><path id="point-0-11" class="cls-31" d="M455.66,430.35h18.08V650.67H455.66Z" transform="translate(-32.31 0)"/><path id="point-0-12" class="cls-31" d="M479.76,357h18.08V650.67H479.76Z" transform="translate(-32.31 0)"/><path id="point-0-13" class="cls-31" d="M503.87,471.69H522v179H503.87Z" transform="translate(-32.31 0)"/><path id="point-0-14" class="cls-31" d="M528,402.33h18.08V650.67H528Z" transform="translate(-32.31 0)"/><path id="point-0-15" class="cls-31" d="M552.07,355.74h18.08V650.67H552.07Z" transform="translate(-32.31 0)"/><path id="point-0-16" class="cls-31" d="M576.18,502.67h18.08v148H576.18Z" transform="translate(-32.31 0)"/><path id="point-0-17" class="cls-31" d="M600.28,484.71h18.08v166H600.28Z" transform="translate(-32.31 0)"/><path id="point-0-18" class="cls-31" d="M624.38,490.49h18.08V650.67H624.38Z" transform="translate(-32.31 0)"/><path id="point-0-19" class="cls-31" d="M648.49,513h18.08V650.67H648.49Z" transform="translate(-32.31 0)"/><path id="point-0-20" class="cls-31" d="M672.59,418.48h18.08V650.67H672.59Z" transform="translate(-32.31 0)"/><path id="point-0-21" class="cls-31" d="M696.69,431.73h18.08V650.67H696.69Z" transform="translate(-32.31 0)"/><path id="point-0-22" class="cls-31" d="M720.8,445.05h18.08V650.67H720.8Z" transform="translate(-32.31 0)"/><path id="point-0-23" class="cls-31" d="M744.9,427.33H763V650.67H744.9Z" transform="translate(-32.31 0)"/><path id="point-0-24" class="cls-31" d="M769,501.28h18.08V650.67H769Z" transform="translate(-32.31 0)"/><path id="point-0-25" class="cls-32" d="M793.11,579.32h18.08v71.35H793.11Z" transform="translate(-32.31 0)"/><path id="point-0-26" class="cls-31" d="M817.21,423.24h18.08V650.67H817.21Z" transform="translate(-32.31 0)"/><path id="point-0-27" class="cls-31" d="M841.31,508.63h18.08v142H841.31Z" transform="translate(-32.31 0)"/><path id="point-0-28" class="cls-31" d="M865.42,456.2H883.5V650.67H865.42Z" transform="translate(-32.31 0)"/><path id="point-0-29" class="cls-31" d="M889.52,465.06H907.6V650.67H889.52Z" transform="translate(-32.31 0)"/><path id="point-0-30" class="cls-31" d="M913.62,531H931.7V650.67H913.62Z" transform="translate(-32.31 0)"/><path id="point-0-31" class="cls-31" d="M937.73,458.91h18.08V650.67H937.73Z" transform="translate(-32.31 0)"/><path id="point-0-32" class="cls-31" d="M961.83,444.09h18.08V650.67H961.83Z" transform="translate(-32.31 0)"/><path id="point-0-33" class="cls-31" d="M985.93,508.15H1004V650.67H985.93Z" transform="translate(-32.31 0)"/><path id="point-0-34" class="cls-31" d="M1010,484.59h18.08V650.67H1010Z" transform="translate(-32.31 0)"/><path id="point-0-35" class="cls-31" d="M1034.14,488.62h18.08v162h-18.08Z" transform="translate(-32.31 0)"/><path id="point-0-36" class="cls-31" d="M1058.24,417.27h18.08v233.4h-18.08Z" transform="translate(-32.31 0)"/><path id="point-0-37" class="cls-31" d="M1082.35,508.63h18.08v142h-18.08Z" transform="translate(-32.31 0)"/><path id="point-0-38" class="cls-31" d="M1106.45,516.59h18.08V650.67h-18.08Z" transform="translate(-32.31 0)"/><path id="point-0-39" class="cls-31" d="M1130.55,545.69h18.08v105h-18.08Z" transform="translate(-32.31 0)"/><path id="point-0-40" class="cls-31" d="M1154.66,549.07h18.08v101.6h-18.08Z" transform="translate(-32.31 0)"/><path id="point-0-41" class="cls-31" d="M1178.76,514.54h18.08V650.67h-18.08Z" transform="translate(-32.31 0)"/></g></g></svg>