<svg id="Capa_1" data-name="Capa 1" xmlns="http://www.w3.org/2000/svg" xmlns:xlink="http://www.w3.org/1999/xlink" viewBox="0 0 1111.35 627.64"><defs><style>.cls-1,.cls-15,.cls-16,.cls-2{fill:none;}.cls-2{stroke:#ccc;}.cls-3{fill:#937dc4;}.cls-4{fill:#bfb4d9;}.cls-5{fill:#e3dcf2;}.cls-6{fill:#ede8f7;}.cls-17,.cls-22,.cls-26,.cls-27,.cls-28,.cls-29,.cls-7,.cls-8{isolation:isolate;}.cls-17,.cls-8{font-size:10px;}.cls-8{fill:#262626;}.cls-30,.cls-8{font-family:GillSans-SemiBold, Gill Sans;font-weight:700;}.cls-9{letter-spacing:-0.02em;}.cls-10{letter-spacing:-0.03em;}.cls-11{letter-spacing:-0.06em;}.cls-12{letter-spacing:-0.09em;}.cls-13{fill-opacity:0;}.cls-14{clip-path:url(#clip-path);}.cls-15,.cls-16{stroke:#eee;}.cls-16{stroke-linecap:square;}.cls-17,.cls-22{fill:#aaa;}.cls-17{font-family:GillSans, Gill Sans;}.cls-18{letter-spacing:-0.01em;}.cls-19{letter-spacing:-0.02em;}.cls-20{letter-spacing:-0.13em;}.cls-21{letter-spacing:-0.15em;}.cls-22{font-size:4.96px;font-family:ArialMT, Arial;}.cls-23{clip-path:url(#clip-path-2);}.cls-24{fill:#eee;}.cls-25{clip-path:url(#clip-path-3);}.cls-26{fill:#ff758b;}.cls-26,.cls-27,.cls-28,.cls-29{opacity:0.9;}.cls-27{fill:#8891d4;}.cls-28{fill:#484d70;}.cls-29{fill:#d8d3ed;}.cls-30{font-size:18px;}</style><clipPath id="clip-path" transform="translate(-134.65 -72.86)"><rect class="cls-1" x="144.11" y="277.8" width="377.91" height="202.54"/></clipPath><clipPath id="clip-path-2" transform="translate(-134.65 -72.86)"><rect class="cls-1" x="120" y="250.75" width="405.76" height="250.39"/></clipPath><clipPath id="clip-path-3" transform="translate(-134.65 -72.86)"><rect class="cls-1" x="120" y="261.08" width="405.76" height="250.39"/></clipPath></defs><title>graph</title><g id="viz"><g id="nodes"><path id="p_943.5" data-name="p 943.5" class="cls-2" d="M965.5,700c-154.64,0-280-125.36-280-280s125.36-280,280-280,280,125.36,280,280S1120.14,700,965.5,700Z" transform="translate(-134.65 -72.86)"/><g id="_86.46" data-name="86.46"><path id="p_677.0860996038946" data-name="p 677.0860996038946" class="cls-3" d="M910.75,488.34a54.63,54.63,0,0,1,0-109.25h0a54.63,54.63,0,0,1,0,109.25Z" transform="translate(-134.65 -72.86)"/></g><g id="_84.71" data-name="84.71"><path id="p_786.2036048800185" data-name="p 786.2036048800185" class="cls-3" d="M1020.42,487.78a54.07,54.07,0,0,1,0-108.13h0a54.07,54.07,0,1,1,0,108.13Z" transform="translate(-134.65 -72.86)"/></g><g id="_84.67" data-name="84.67"><path id="p_826.5512456605269" data-name="p 826.5512456605269" class="cls-3" d="M966.14,582.41a54.06,54.06,0,1,1,54.06-54A54.05,54.05,0,0,1,966.14,582.41Z" transform="translate(-134.65 -72.86)"/></g><g id="_70.13" data-name="70.13"><path id="p_638.0422289790583" data-name="p 638.0422289790583" class="cls-3" d="M966.12,393.93a49.2,49.2,0,1,1,0-98.39h0a49.2,49.2,0,0,1,0,98.39Z" transform="translate(-134.65 -72.86)"/></g><g id="_61.62" data-name="61.62"><path id="p_534.5791331653952" data-name="p 534.5791331653952" class="cls-4" d="M869.92,386.66A46.11,46.11,0,1,1,916,340.55,46.11,46.11,0,0,1,869.92,386.66Z" transform="translate(-134.65 -72.86)"/></g><g id="_58.43" data-name="58.43"><path id="p_726.5158852329378" data-name="p 726.5158852329378" class="cls-4" d="M1061.17,387.35a44.91,44.91,0,1,1,44.9-44.91A44.91,44.91,0,0,1,1061.17,387.35Z" transform="translate(-134.65 -72.86)"/></g><g id="_48.94" data-name="48.94"><path id="p_710.8718197099682" data-name="p 710.8718197099682" class="cls-4" d="M870.25,562.62a41.1,41.1,0,1,1,41.1-41.09A41.1,41.1,0,0,1,870.25,562.62Z" transform="translate(-134.65 -72.86)"/></g><g id="_48.74" data-name="48.74"><path id="p_901.2499502018429" data-name="p 901.2499502018429" class="cls-4" d="M1061.86,561.39a41,41,0,1,1,41-41A41,41,0,0,1,1061.86,561.39Z" transform="translate(-134.65 -72.86)"/></g><g id="_46.74" data-name="46.74"><path id="p_546.5405185164666" data-name="p 546.5405185164666" class="cls-4" d="M817.83,450.72A40.17,40.17,0,1,1,858,410.55,40.17,40.17,0,0,1,817.83,450.72Z" transform="translate(-134.65 -72.86)"/></g><g id="_46.36" data-name="46.36"><path id="p_841.8603234081069" data-name="p 841.8603234081069" class="cls-4" d="M1112.75,451.11a40,40,0,1,1,0-80h0a40,40,0,1,1,0,80Z" transform="translate(-134.65 -72.86)"/></g><g id="_46.13" data-name="46.13"><path id="p_601.558795551944" data-name="p 601.558795551944" class="cls-4" d="M795.27,528.29a39.9,39.9,0,1,1,0-79.79h0a39.9,39.9,0,1,1,0,79.79Z" transform="translate(-134.65 -72.86)"/></g><g id="_45.48" data-name="45.48"><path id="p_942.4509516302828" data-name="p 942.4509516302828" class="cls-4" d="M1136.79,527.66a39.62,39.62,0,1,1,0-79.23h0a39.62,39.62,0,0,1,0,79.23Z" transform="translate(-134.65 -72.86)"/></g><g id="_43.32" data-name="43.32"><path id="p_603.5620593574932" data-name="p 603.5620593574932" class="cls-4" d="M1015.81,309.75a38.67,38.67,0,1,1,0-77.33h0a38.67,38.67,0,0,1,0,77.33Z" transform="translate(-134.65 -72.86)"/></g><g id="_41.21" data-name="41.21"><path id="p_505.02251383235557" data-name="p 505.02251383235557" class="cls-4" d="M918.37,308.66a37.72,37.72,0,0,1,0-75.43h0a37.72,37.72,0,0,1,0,75.43Z" transform="translate(-134.65 -72.86)"/></g><g id="_38.73" data-name="38.73"><path id="p_809.9187713737489" data-name="p 809.9187713737489" class="cls-4" d="M901.81,630.11a36.56,36.56,0,0,1,0-73.11h0a36.56,36.56,0,0,1,0,73.11Z" transform="translate(-134.65 -72.86)"/></g><g id="_38.53" data-name="38.53"><path id="p_938.361224008588" data-name="p 938.361224008588" class="cls-4" d="M1031.27,629.09a36.46,36.46,0,1,1,36.46-36.46A36.46,36.46,0,0,1,1031.27,629.09Z" transform="translate(-134.65 -72.86)"/></g><g id="_37.74" data-name="37.74"><path id="p_494.1825564302856" data-name="p 494.1825564302856" class="cls-5" d="M966.44,249.75a36.09,36.09,0,1,1,0-72.18h0a36.09,36.09,0,0,1,0,72.18Z" transform="translate(-134.65 -72.86)"/></g><g id="_37.06" data-name="37.06"><path id="p_797.0590378437721" data-name="p 797.0590378437721" class="cls-5" d="M1142.8,376.26a35.76,35.76,0,1,1,35.76-35.76A35.77,35.77,0,0,1,1142.8,376.26Z" transform="translate(-134.65 -72.86)"/></g><g id="_36.56" data-name="36.56"><path id="p_441.0481689113167" data-name="p 441.0481689113167" class="cls-5" d="M787.3,375.75a35.52,35.52,0,0,1,0-71h0a35.52,35.52,0,0,1,0,71Z" transform="translate(-134.65 -72.86)"/></g><g id="_36.33" data-name="36.33"><path id="p_906.8608370838627" data-name="p 906.8608370838627" class="cls-5" d="M966.83,662a35.41,35.41,0,1,1,35.41-35.41A35.41,35.41,0,0,1,966.83,662Z" transform="translate(-134.65 -72.86)"/></g><g id="_34.28" data-name="34.28"><path id="p_669.5796921237766" data-name="p 669.5796921237766" class="cls-5" d="M1089.76,301.82a34.4,34.4,0,0,1,0-68.79h0a34.4,34.4,0,0,1,0,68.79Z" transform="translate(-134.65 -72.86)"/></g><g id="_34.12" data-name="34.12"><path id="p_729.2282723292603" data-name="p 729.2282723292603" class="cls-5" d="M830.28,620.94a34.31,34.31,0,1,1,34.32-34.31A34.31,34.31,0,0,1,830.28,620.94Z" transform="translate(-134.65 -72.86)"/></g><g id="_32.27" data-name="32.27"><path id="p_421.5655257222897" data-name="p 421.5655257222897" class="cls-5" d="M846.69,296.88a33.37,33.37,0,1,1,0-66.74h0a33.37,33.37,0,0,1,0,66.74Z" transform="translate(-134.65 -72.86)"/></g><g id="_31.82" data-name="31.82"><path id="p_996.7862138599342" data-name="p 996.7862138599342" class="cls-5" d="M1101.36,617.43a33.14,33.14,0,1,1,33.14-33.14A33.14,33.14,0,0,1,1101.36,617.43Z" transform="translate(-134.65 -72.86)"/></g><g id="_30.8" data-name="30.8"><path id="p_636.8350777987407" data-name="p 636.8350777987407" class="cls-6" d="M769.15,589.68a32.6,32.6,0,0,1,0-65.2h0a32.6,32.6,0,1,1,0,65.2Z" transform="translate(-134.65 -72.86)"/></g><g id="_29.7" data-name="29.7"><path id="p_1027.7231448788325" data-name="p 1027.7231448788325" class="cls-6" d="M1160.32,587.4a32,32,0,1,1,0-64h0a32,32,0,1,1,0,64Z" transform="translate(-134.65 -72.86)"/></g><g id="_27.56" data-name="27.56"><path id="p_491.51027346268233" data-name="p 491.51027346268233" class="cls-5" d="M749.49,464a30.84,30.84,0,0,1,0-61.68h0a30.84,30.84,0,0,1,0,61.68Z" transform="translate(-134.65 -72.86)"/></g><g id="_27.54" data-name="27.54"><path id="p_922.4475506844783" data-name="p 922.4475506844783" class="cls-6" d="M1181.38,463.07a30.83,30.83,0,0,1,0-61.66h0a30.83,30.83,0,0,1,0,61.66Z" transform="translate(-134.65 -72.86)"/></g><g id="_26.89" data-name="26.89"><path id="p_738.1402836615033" data-name="p 738.1402836615033" class="cls-6" d="M1156.23,305.92a30.47,30.47,0,1,1,0-60.93h0a30.47,30.47,0,0,1,0,60.93Z" transform="translate(-134.65 -72.86)"/></g><g id="_26.58" data-name="26.58"><path id="p_364.71161934487066" data-name="p 364.71161934487066" class="cls-6" d="M783.84,304.87a30.29,30.29,0,1,1,0-60.57h0a30.29,30.29,0,1,1,0,60.57Z" transform="translate(-134.65 -72.86)"/></g><g id="_24.79" data-name="24.79"><path id="p_880.8974820986202" data-name="p 880.8974820986202" class="cls-6" d="M1200.67,404.23a29.25,29.25,0,1,1,0-58.49h0a29.25,29.25,0,1,1,0,58.49Z" transform="translate(-134.65 -72.86)"/></g><g id="_24.56" data-name="24.56"><path id="p_413.6509597687247" data-name="p 413.6509597687247" class="cls-6" d="M732.61,405a29.11,29.11,0,1,1,0-58.22h0a29.11,29.11,0,1,1,0,58.22Z" transform="translate(-134.65 -72.86)"/></g><g id="_23.65" data-name="23.65"><path id="p_876.211429173297" data-name="p 876.211429173297" class="cls-6" d="M909.56,687.65a28.57,28.57,0,1,1,0-57.14h0a28.57,28.57,0,1,1,0,57.14Z" transform="translate(-134.65 -72.86)"/></g><g id="_23.57" data-name="23.57"><path id="p_988.2382921161678" data-name="p 988.2382921161678" class="cls-6" d="M1022.57,685.67a28.52,28.52,0,0,1,0-57h0a28.52,28.52,0,1,1,0,57Z" transform="translate(-134.65 -72.86)"/></g><g id="_23.56" data-name="23.56"><path id="p_1029.113514444517" data-name="p 1029.113514444517" class="cls-6" d="M1078.58,670.53A28.52,28.52,0,1,1,1107.1,642,28.5,28.5,0,0,1,1078.58,670.53Z" transform="translate(-134.65 -72.86)"/></g><g id="_22.84" data-name="22.84"><path id="p_805.8548468201706" data-name="p 805.8548468201706" class="cls-6" d="M853.65,673.21a28.08,28.08,0,1,1,28.07-28.08A28.08,28.08,0,0,1,853.65,673.21Z" transform="translate(-134.65 -72.86)"/></g><g id="_22.59" data-name="22.59"><path id="p_403.86779445303637" data-name="p 403.86779445303637" class="cls-6" d="M885.17,242.7a27.92,27.92,0,1,1,27.92-27.92A27.92,27.92,0,0,1,885.17,242.7Z" transform="translate(-134.65 -72.86)"/></g><g id="_22.25" data-name="22.25"><path id="p_575.1271447751924" data-name="p 575.1271447751924" class="cls-5" d="M1053.89,243.24a27.71,27.71,0,0,1,0-55.42h0a27.71,27.71,0,0,1,0,55.42Z" transform="translate(-134.65 -72.86)"/></g><g id="_19.86" data-name="19.86"><path id="p_394.953018663363" data-name="p 394.953018663363" class="cls-6" d="M920.37,198.59a26.18,26.18,0,0,1,0-52.36h0a26.18,26.18,0,1,1,0,52.36Z" transform="translate(-134.65 -72.86)"/></g><g id="_17.42" data-name="17.42"><path id="p_496.684553716129" data-name="p 496.684553716129" class="cls-6" d="M1017.45,203.23a24.52,24.52,0,0,1,0-49h0a24.52,24.52,0,1,1,0,49Z" transform="translate(-134.65 -72.86)"/></g><g id="_16.86" data-name="16.86"><path id="p_518.1754698991825" data-name="p 518.1754698991825" class="cls-6" d="M730.32,509.86a24.12,24.12,0,1,1,24.12-24.12A24.12,24.12,0,0,1,730.32,509.86Z" transform="translate(-134.65 -72.86)"/></g><g id="_11.84" data-name="11.84"><path id="p_977.2701836175581" data-name="p 977.2701836175581" class="cls-6" d="M1197.28,502a20.22,20.22,0,1,1,20.21-20.21A20.21,20.21,0,0,1,1197.28,502Z" transform="translate(-134.65 -72.86)"/></g></g><g id="labels"><g class="cls-7"><text class="cls-8" transform="translate(745.03 361.35)">Lo Barnechea</text></g><g class="cls-7"><text class="cls-8" transform="translate(859.43 361.35)">Las Condes</text></g><g class="cls-7"><text class="cls-8" transform="translate(813.85 455.99)">Vitacura</text></g><g class="cls-7"><text class="cls-8" transform="translate(805.12 272.37)">P<tspan class="cls-9" x="5.84" y="0">r</tspan><tspan x="9.82" y="0">ovidencia</tspan></text></g><g class="cls-7"><text class="cls-8" transform="translate(721.71 268.19)">Ñuñoa</text></g><g class="cls-7"><text class="cls-8" transform="translate(907.68 270.08)">La <tspan class="cls-9" x="13.14" y="0">R</tspan><tspan x="19.38" y="0">eina</tspan></text></g><g class="cls-7"><text class="cls-8" transform="translate(722.32 449.16)">Colina</text></g><g class="cls-7"><text class="cls-8" transform="translate(900.31 448.02)">Huechuraba</text></g><g class="cls-7"><text class="cls-8" transform="translate(664.06 338.19)">Santiago</text></g><g class="cls-7"><text class="cls-8" transform="translate(953.7 338.75)">San Miguel</text></g><g class="cls-7"><text class="cls-8" transform="translate(648.17 416.03)">Maipú</text></g><g class="cls-7"><text class="cls-8" transform="translate(980.25 415.68)">La Florida</text></g><g class="cls-7"><text class="cls-8" transform="translate(868.99 198.72)">Macul</text></g><g class="cls-7"><text class="cls-8" transform="translate(762.1 198.58)"><tspan class="cls-10">P</tspan><tspan x="5.54" y="0">eñalolén</tspan></text></g><g class="cls-7"><text class="cls-8" transform="translate(758.05 521.19)">Buin</text></g><g class="cls-7"><text class="cls-8" transform="translate(882.5 520.27)">Lampa</text></g><g class="cls-7"><text class="cls-8" transform="translate(806.19 141.29)">Puente<tspan class="cls-11" x="30.66" y="0"> </tspan><tspan x="32.84" y="0">Alto</tspan></text></g><g class="cls-7"><text class="cls-8" transform="translate(987.18 268.14)"><tspan class="cls-12">T</tspan><tspan x="5.76" y="0">alagante</tspan></text></g><g class="cls-7"><text class="cls-8" transform="translate(632.98 267.86)">Quilicura</text></g><g class="cls-7"><text class="cls-8" transform="translate(811.68 554.26)">Pudahuel</text></g><g class="cls-7"><text class="cls-8" transform="translate(943.77 195.06)">Paine</text></g><g class="cls-7"><text class="cls-8" transform="translate(664.85 514.27)">San Berna<tspan class="cls-9" x="44.22" y="0">r</tspan><tspan x="48.2" y="0">do</tspan></text></g><g class="cls-7"><text class="cls-8" transform="translate(679.58 191.14)">Pad<tspan class="cls-9" x="16.15" y="0">r</tspan><tspan x="20.13" y="0">e Hurtado</tspan></text></g><g class="cls-7"><text class="cls-8" transform="translate(948.98 511.93)">Melipilla</text></g><g class="cls-7"><text class="cls-8" transform="translate(616.22 484.72)">Cerrillos</text></g><g class="cls-7"><text class="cls-8" transform="translate(1008.66 484.03)"><tspan class="cls-10">P</tspan><tspan x="5.54" y="0">eñaflor</tspan></text></g><g class="cls-7"><text class="cls-8" transform="translate(601.83 360.82)"><tspan class="cls-9">R</tspan><tspan x="6.24" y="0">enca</tspan></text></g><g class="cls-7"><text class="cls-8" transform="translate(1019 359.88)">San Joaquín</text></g><g class="cls-7"><text class="cls-8" transform="translate(1001.46 202.09)">Conchalí</text></g><g class="cls-7"><text class="cls-8" transform="translate(622.95 201.22)">La Cisterna</text></g><g class="cls-7"><text class="cls-8" transform="translate(1027.56 301.62)">Estación Central</text></g><g class="cls-7"><text class="cls-8" transform="translate(575.9 302.56)">La Granja</text></g><g class="cls-7"><text class="cls-8" transform="translate(756.24 586.72)">Lo Prado</text></g><g class="cls-7"><text class="cls-8" transform="translate(856.47 585.78)">Quinta Normal</text></g><g class="cls-7"><text class="cls-8" transform="translate(922.48 570.65)">El Bosque</text></g><g class="cls-7"><text class="cls-8" transform="translate(701.16 572.77)"><tspan class="cls-9">R</tspan><tspan x="6.24" y="0">ecoleta</tspan></text></g><g class="cls-7"><text class="cls-8" transform="translate(726.24 141.41)">La Pintana</text></g><g class="cls-7"><text class="cls-8" transform="translate(893.17 143.16)">Cer<tspan class="cls-9" x="16.59" y="0">r</tspan><tspan x="20.57" y="0">o Navia</tspan></text></g><g class="cls-7"><text class="cls-8" transform="translate(770.66 93.04)"><tspan class="cls-10">P</tspan><tspan x="5.54" y="0">ed</tspan><tspan class="cls-9" x="16.18" y="0">r</tspan><tspan x="20.16" y="0">o </tspan><tspan x="-17.09" y="12">Aguir</tspan><tspan class="cls-9" x="7.14" y="12">r</tspan><tspan x="11.12" y="12">e Ce</tspan><tspan class="cls-9" x="31.47" y="12">r</tspan><tspan x="35.45" y="12">da</tspan></text></g><g class="cls-7"><text class="cls-8" transform="translate(856.29 105.35)">San Ramón</text></g><g class="cls-7"><text class="cls-8" transform="translate(573.77 413.37)">Lo Espejo</text></g><g class="cls-7"><text class="cls-8" transform="translate(1029.62 409.41)">Independencia</text></g></g></g><rect class="cls-1" x="9.85" y="205.32" width="377.12" height="201.76"/><rect class="cls-13" x="9.85" y="205.32" width="377.12" height="201.76"/><g class="cls-14"><line class="cls-15" x1="9.85" y1="407.08" x2="386.97" y2="407.08"/><line class="cls-15" x1="9.85" y1="392.25" x2="386.97" y2="392.25"/><line class="cls-15" x1="9.85" y1="377.41" x2="386.97" y2="377.41"/><line class="cls-15" x1="9.85" y1="362.58" x2="386.97" y2="362.58"/><line class="cls-15" x1="9.85" y1="347.74" x2="386.97" y2="347.74"/><line class="cls-15" x1="9.85" y1="332.91" x2="386.97" y2="332.91"/><line class="cls-15" x1="9.85" y1="318.07" x2="386.97" y2="318.07"/><line class="cls-15" x1="9.85" y1="303.24" x2="386.97" y2="303.24"/><line class="cls-15" x1="9.85" y1="288.4" x2="386.97" y2="288.4"/><line class="cls-15" x1="9.85" y1="273.57" x2="386.97" y2="273.57"/><line class="cls-15" x1="9.85" y1="258.73" x2="386.97" y2="258.73"/><line class="cls-15" x1="9.85" y1="243.9" x2="386.97" y2="243.9"/><line class="cls-15" x1="9.85" y1="229.06" x2="386.97" y2="229.06"/><line class="cls-15" x1="9.85" y1="214.23" x2="386.97" y2="214.23"/></g><line class="cls-16" x1="9.85" y1="407.08" x2="386.97" y2="407.08"/><line class="cls-15" x1="56.99" y1="407.08" x2="56.99" y2="409.83"/><g class="cls-7"><text class="cls-17" transform="translate(34.79 464.11) rotate(-45)">Ran<tspan class="cls-18" x="15.31" y="0">g</tspan><tspan x="19.48" y="0">o Superior</tspan></text></g><line class="cls-15" x1="151.27" y1="407.08" x2="151.27" y2="409.83"/><g class="cls-7"><text class="cls-17" transform="translate(127.32 465.86) rotate(-45)">Ran<tspan class="cls-18" x="15.31" y="0">g</tspan><tspan x="19.48" y="0">o P</tspan><tspan class="cls-19" x="32.87" y="0">r</tspan><tspan x="36.58" y="0">omedio</tspan></text></g><line class="cls-15" x1="245.55" y1="407.08" x2="245.55" y2="409.83"/><g class="cls-7"><text class="cls-17" transform="translate(225.69 461.77) rotate(-45)">Ran<tspan class="cls-18" x="15.31" y="0">g</tspan><tspan x="19.48" y="0">o In</tspan><tspan class="cls-18" x="35.27" y="0">f</tspan><tspan x="37.68" y="0">erior</tspan></text></g><line class="cls-15" x1="339.83" y1="407.08" x2="339.83" y2="409.83"/><g class="cls-7"><text class="cls-17" transform="translate(318.87 462.88) rotate(-45)">P<tspan class="cls-19" x="5.1" y="0">r</tspan><tspan x="8.81" y="0">omedio</tspan><tspan class="cls-20" x="39.63" y="0"> </tspan><tspan class="cls-21" x="41.16" y="0">T</tspan><tspan x="45.7" y="0">otal</tspan></text></g><line class="cls-16" x1="9.85" y1="205.32" x2="9.85" y2="407.08"/><line class="cls-15" x1="9.85" y1="407.08" x2="7.1" y2="407.08"/><g class="cls-7"><text class="cls-22" transform="translate(2.97 408.72)">0</text></g><line class="cls-15" x1="9.85" y1="229.06" x2="7.1" y2="229.06"/><g class="cls-7"><text class="cls-22" transform="translate(0.21 230.7)">60</text></g><line class="cls-15" x1="9.85" y1="258.73" x2="7.1" y2="258.73"/><g class="cls-7"><text class="cls-22" transform="translate(0.21 260.37)">50</text></g><line class="cls-15" x1="9.85" y1="288.4" x2="7.1" y2="288.4"/><g class="cls-7"><text class="cls-22" transform="translate(0.21 290.04)">40</text></g><line class="cls-15" x1="9.85" y1="318.07" x2="7.1" y2="318.07"/><g class="cls-7"><text class="cls-22" transform="translate(0.21 319.71)">30</text></g><line class="cls-15" x1="9.85" y1="347.74" x2="7.1" y2="347.74"/><g class="cls-7"><text class="cls-22" transform="translate(0.21 349.38)">20</text></g><line class="cls-15" x1="9.85" y1="377.41" x2="7.1" y2="377.41"/><g class="cls-7"><text class="cls-22" transform="translate(0.21 379.05)">10</text></g><line class="cls-15" x1="9.85" y1="392.25" x2="7.1" y2="392.25"/><g class="cls-7"><text class="cls-22" transform="translate(2.97 393.88)">5</text></g><line class="cls-15" x1="9.85" y1="214.23" x2="7.1" y2="214.23"/><g class="cls-7"><text class="cls-22" transform="translate(0.21 215.86)">65</text></g><line class="cls-15" x1="9.85" y1="243.9" x2="7.1" y2="243.9"/><g class="cls-7"><text class="cls-22" transform="translate(0.21 245.53)">55</text></g><line class="cls-15" x1="9.85" y1="273.57" x2="7.1" y2="273.57"/><g class="cls-7"><text class="cls-22" transform="translate(0.21 275.2)">45</text></g><line class="cls-15" x1="9.85" y1="303.24" x2="7.1" y2="303.24"/><g class="cls-7"><text class="cls-22" transform="translate(0.21 304.87)">35</text></g><line class="cls-15" x1="9.85" y1="332.91" x2="7.1" y2="332.91"/><g class="cls-7"><text class="cls-22" transform="translate(0.21 334.54)">25</text></g><line class="cls-15" x1="9.85" y1="362.58" x2="7.1" y2="362.58"/><g class="cls-7"><text class="cls-22" transform="translate(0.21 364.21)">15</text></g><g class="cls-23"><rect class="cls-24" x="9.85" y="192.34" height="10.33"/></g><g id="data-points"><g class="cls-25"><path id="point-0-0" class="cls-26" d="M156.29,280.68H227V479.94H156.29Z" transform="translate(-134.65 -72.86)"/><path id="point-0-1" class="cls-27" d="M250.57,321.39h70.71V479.94H250.57Z" transform="translate(-134.65 -72.86)"/><path id="point-0-2" class="cls-28" d="M344.85,342.75h70.71V479.94H344.85Z" transform="translate(-134.65 -72.86)"/><path id="point-0-3" class="cls-29" d="M439.13,318.81h70.71V479.94H439.13Z" transform="translate(-134.65 -72.86)"/></g></g><text class="cls-30" transform="translate(788.32 15.14)">Dimensión<tspan x="-32.93" y="21.6">Vivienda y Entorno</tspan></text><text class="cls-30" transform="translate(0 154.14)">P<tspan class="cls-9" x="10.51" y="0">r</tspan><tspan x="17.67" y="0">omedio ICVU 2019</tspan><tspan x="0" y="21.6">(Rangos Comunas de Santiago)</tspan></text></svg>